<svg width="32" height="32" viewBox="0 0 32 32" fill="none" xmlns="http://www.w3.org/2000/svg">
<path d="M19.5844 1.21278L16.5147 0.390259L13.9279 10.0446L11.5924 1.32859L8.52271 2.15112L11.046 11.5681L4.76104 5.28312L2.51386 7.53029L9.4077 14.4242L0.822523 12.1238L0 15.1934L9.38039 17.7069C9.27299 17.2437 9.21617 16.761 9.21617 16.2651C9.21617 12.7548 12.0618 9.90914 15.5722 9.90914C19.0825 9.90914 21.9281 12.7548 21.9281 16.2651C21.9281 16.7578 21.872 17.2375 21.7659 17.698L30.291 19.9823L31.1135 16.9126L21.6958 14.3891L30.2815 12.0886L29.459 9.01892L20.0417 11.5422L26.3267 5.25732L24.0795 3.01015L17.2813 9.80838L19.5844 1.21278Z" fill="#FF4405"/>
<path d="M21.757 17.7338C21.4938 18.8464 20.9382 19.846 20.1758 20.6469L26.3518 26.8229L28.599 24.5758L21.757 17.7338Z" fill="#FF4405"/>
<path d="M20.1134 20.7114C19.3418 21.4995 18.3668 22.0876 17.2733 22.3906L19.5207 30.7778L22.5903 29.9552L20.1134 20.7114Z" fill="#FF4405"/>
<path d="M17.1587 22.4213C16.6513 22.5518 16.1196 22.6211 15.5716 22.6211C14.9845 22.6211 14.416 22.5415 13.8763 22.3925L11.627 30.7872L14.6966 31.6097L17.1587 22.4213Z" fill="#FF4405"/>
<path d="M13.7678 22.3615C12.691 22.0434 11.7333 21.4478 10.9775 20.6575L4.78625 26.8487L7.03343 29.0959L13.7678 22.3615Z" fill="#FF4405"/>
<path d="M10.9264 20.6027C10.1836 19.8074 9.64246 18.8212 9.3849 17.7257L0.832031 20.0175L1.65455 23.0871L10.9264 20.6027Z" fill="#FF4405"/>
</svg>
