<svg xmlns="http://www.w3.org/2000/svg" version="1.1" xmlns:xlink="http://www.w3.org/1999/xlink" width="512" height="512" x="0" y="0" viewBox="0 0 510 510" style="enable-background:new 0 0 512 512" xml:space="preserve" fill-rule="evenodd" class=""><g><path fill="#c6ea94" d="m382.936 383.011 62.875 68.163v-68.163h25.627c12.972 0 23.562-10.59 23.562-23.562V220.791c0-12.972-10.59-23.562-23.562-23.562H219.736c-12.972 0-23.562 10.59-23.562 23.562v138.658c0 12.972 10.59 23.562 23.562 23.562z" opacity="1" data-original="#c6ea94"></path><path fill="#66d4f1" d="m127.064 244.608-62.875 68.163v-68.163H38.562C25.59 244.608 15 234.018 15 221.046V82.388c0-12.972 10.59-23.562 23.562-23.562h251.702c12.972 0 23.562 10.59 23.562 23.562v138.658c0 12.972-10.59 23.562-23.562 23.562z" opacity="1" data-original="#66d4f1"></path><path fill="#f4f6f8" d="M193.199 175.879c-24.099 5.904-42.188 27.639-42.188 53.41 0 30.018 24.55 54.584 54.569 54.584h145.89c30.018 0 54.584-24.566 54.584-54.584 0-30.019-24.566-54.585-54.584-54.585h-28.211c-.482-35.501-29.416-64.118-65.023-64.118-35.922 0-65.037 29.114-65.037 65.293z" opacity="1" data-original="#f4f6f8"></path><path fill="#fdcd56" d="M245.146 337.885c3.163-11.254 18.594-56.524 18.594-56.524l-24.848-19.848 65.922-56.949-21.612 55.076 26.277 19.031z" opacity="1" data-original="#fdcd56"></path><path d="M148.218 251.608h-18.087l-60.797 65.909a6.998 6.998 0 0 1-12.145-4.747v-61.162H38.562C21.736 251.608 8 237.872 8 221.046V82.388c0-16.826 13.736-30.562 30.562-30.562h251.702c16.826 0 30.562 13.736 30.562 30.562v57.55a71.558 71.558 0 0 1 9.01 27.766h21.634c19.076 0 36.2 8.793 47.519 22.525h72.449c16.826 0 30.562 13.736 30.562 30.562v138.658c0 16.826-13.736 30.562-30.562 30.562h-18.627v61.162a7 7 0 0 1-12.145 4.747l-60.797-65.909H219.736c-16.826 0-30.562-13.736-30.562-30.562V288.64c-18.728-5.213-33.933-19.112-40.956-37.032zM306.826 122.44V82.388c0-9.118-7.444-16.562-16.562-16.562H38.562C29.444 65.826 22 73.27 22 82.388v138.658c0 9.118 7.444 16.562 16.562 16.562h25.627a7 7 0 0 1 7 7v50.25l50.73-54.996a6.999 6.999 0 0 1 5.145-2.254h17.51a61.587 61.587 0 0 1-.563-8.319c0-27.178 17.832-50.388 42.377-58.709 2.696-37.57 33.837-66.994 71.848-66.994 18.723 0 35.779 7.143 48.59 18.854zm100.866 81.789a61.008 61.008 0 0 1 5.362 25.06c0 33.868-27.716 61.584-61.584 61.584h-44.912l-56.671 52.162a7 7 0 0 1-11.48-7.044c2.145-7.632 9.894-30.811 14.72-45.118H205.58c-.806 0-1.607-.016-2.406-.047v68.623c0 9.118 7.444 16.562 16.562 16.562h163.2c1.954 0 3.82.817 5.145 2.254l50.73 54.996v-50.25a7 7 0 0 1 7-7h25.627c9.118 0 16.562-7.444 16.562-16.562V220.791c0-9.118-7.444-16.562-16.562-16.562zm-91.447 72.644h35.225c26.168 0 47.584-21.416 47.584-47.584 0-26.169-21.416-47.585-47.584-47.585h-28.211a7 7 0 0 1-7-6.905c-.43-31.678-26.25-57.213-58.023-57.213-32.064 0-58.037 26.001-58.037 58.293a7 7 0 0 1-5.334 6.799c-21.04 5.155-36.854 24.112-36.854 46.611 0 26.168 21.401 47.584 47.569 47.584h41.326l-12.382-9.89a7 7 0 0 1-.208-10.767l65.921-56.949a7 7 0 0 1 11.093 7.854l-19.631 50.029 21.886 15.851a7.005 7.005 0 0 1 2.66 3.872zm11.451 68.012c-3.864 0-7-3.137-7-7s3.136-7 7-7h130.236c3.863 0 7 3.137 7 7s-3.137 7-7 7zm105.507-92.1c-3.863 0-7-3.137-7-7 0-3.864 3.137-7 7-7h24.729c3.863 0 7 3.136 7 7 0 3.863-3.137 7-7 7zm-25.322 46.05c-3.863 0-7-3.137-7-7 0-3.864 3.137-7 7-7h50.051c3.863 0 7 3.136 7 7 0 3.863-3.137 7-7 7zM63.006 110.259c-3.863 0-7-3.137-7-7 0-3.864 3.137-7 7-7h96.867c3.864 0 7 3.136 7 7 0 3.863-3.136 7-7 7zm0 44.445c-3.863 0-7-3.137-7-7 0-3.864 3.137-7 7-7h77.454c3.863 0 7 3.136 7 7 0 3.863-3.137 7-7 7zm0 44.445c-3.863 0-7-3.137-7-7 0-3.864 3.137-7 7-7h63.949c3.863 0 7 3.136 7 7 0 3.863-3.137 7-7 7zm196.86 115.673 38.574-35.504-19.344-14.009a6.999 6.999 0 0 1-2.41-8.226l11.26-28.697-38.102 32.916 18.264 14.589a6.999 6.999 0 0 1 2.257 7.728s-5.436 15.942-10.499 31.203z" fill="#000000" opacity="1" data-original="#000000" class=""></path></g></svg>