<svg xmlns="http://www.w3.org/2000/svg" version="1.1" xmlns:xlink="http://www.w3.org/1999/xlink" width="512" height="512" x="0" y="0" viewBox="0 0 512 512" style="enable-background:new 0 0 512 512" xml:space="preserve" class=""><g><path fill="#494a47" d="M309.263 504.476H15.068v-84.325c0-34.543 28.003-62.545 62.545-62.545h169.104c34.543 0 62.545 28.003 62.545 62.545v84.325z" opacity="1" data-original="#494a47"></path><g fill="#333331"><path d="M100.921 357.606H77.613c-34.543 0-62.545 28.003-62.545 62.545v84.325h23.309v-84.325c-.001-34.543 28.002-62.545 62.544-62.545z" fill="#333331" opacity="1" data-original="#333331"></path><path d="m226.636 438.502 38.686-77.268c-16.875-21.25-103.398-29.372-103.398-29.372S75.675 339.984 58.8 361.234l38.686 77.268-13.614 15.068 78.052 50.671v.235l.137-.117.137.117v-.235l78.052-50.671zM45.442 111.112h231.373v38.222H45.442z" fill="#333331" opacity="1" data-original="#333331"></path></g><path fill="#68c0e0" d="m122.88 347.301 39.285 129.704 41.906-129.704z" opacity="1" data-original="#68c0e0"></path><path fill="#ffb09e" d="m200.251 323.12-38.19 49.695-37.982-51.629v-47.762h76.172zM276.815 193.129h-11.492v-43.794h11.492c12.493 0 22.62 9.804 22.62 21.897s-10.127 21.897-22.62 21.897zM47.516 193.129h11.492v-43.794H47.516c-12.493 0-22.62 9.804-22.62 21.897s10.127 21.897 22.62 21.897z" opacity="1" data-original="#ffb09e"></path><path fill="#ffcebf" d="M244.277 128.274v-17.162H80.068v17.162c0 11.631-9.429 21.061-21.061 21.061v62.221c0 55.151 46.185 99.86 103.158 99.86 56.972 0 103.157-44.709 103.157-99.86v-62.222c-11.624-.008-21.045-9.434-21.045-21.06z" opacity="1" data-original="#ffcebf"></path><path fill="#ffb09e" d="M82.109 211.556v-62.221c11.631 0 21.061-9.429 21.061-21.061v-17.162H80.068v17.162c0 11.631-9.429 21.061-21.061 21.061v62.221c0 55.151 46.185 99.86 103.158 99.86 3.905 0 7.758-.217 11.551-.627-51.535-5.559-91.607-47.863-91.607-99.233z" opacity="1" data-original="#ffb09e"></path><path fill="#494a47" d="M180.276 143.286h-36.221a127.871 127.871 0 0 1-80.148-28.234l-4.899-3.94h206.315l-4.899 3.94a127.873 127.873 0 0 1-80.148 28.234zM278.888 111.112H45.442l-30.61-31.121c-13.97-14.203-6.336-36.428 14.21-41.37L154.58 8.42a32.544 32.544 0 0 1 15.17 0l125.538 30.201c20.546 4.943 28.18 27.167 14.21 41.37z" opacity="1" data-original="#494a47"></path><path fill="#333331" d="M52.35 38.621 173.819 9.399l-4.069-.979a32.544 32.544 0 0 0-15.17 0L29.042 38.621C8.496 43.564.862 65.788 14.832 79.991l30.61 31.122H68.75L38.14 79.991c-13.97-14.203-6.336-36.428 14.21-41.37z" opacity="1" data-original="#333331"></path><path fill="#f8d250" d="m20.086 85.333 25.356 25.779h233.446l25.356-25.779z" opacity="1" data-original="#f8d250"></path><path fill="#f8ae46" d="m20.086 85.333 25.356 25.779H68.75L43.395 85.333z" opacity="1" data-original="#f8ae46"></path><path fill="#ffffff" d="m124.079 321.186-26.957 26.115 48.139 46.725 16.8-21.211zM200.148 321.186l26.956 26.115-48.138 46.725-16.801-21.211z" opacity="1" data-original="#ffffff"></path><path fill="#cdcdc6" d="M373.371 404.699h30.745v68.55h-30.745zM469.752 363.368v41.331H307.734v-41.331z" opacity="1" data-original="#cdcdc6"></path><path fill="#494a47" d="M388.743 504.109c-63.702 0-115.527-51.825-115.527-115.527s51.825-115.527 115.527-115.527S504.27 324.881 504.27 388.582s-51.825 115.527-115.527 115.527zm0-194.859c-43.744 0-79.332 35.588-79.332 79.332s35.588 79.332 79.332 79.332 79.332-35.588 79.332-79.332-35.588-79.332-79.332-79.332z" opacity="1" data-original="#494a47"></path><path fill="#333331" d="M296.525 388.582c0-59.768 45.623-109.08 103.872-114.942a116.287 116.287 0 0 0-11.654-.585c-63.702 0-115.527 51.825-115.527 115.527s51.825 115.527 115.527 115.527c3.933 0 7.821-.199 11.654-.585-58.249-5.862-103.872-55.173-103.872-114.942z" opacity="1" data-original="#333331"></path><path fill="#494a47" d="M408.825 410.829h-40.164a8.766 8.766 0 0 1-8.484-6.563l-9.217-35.516c-1.441-5.551 2.749-10.967 8.484-10.967h58.598c5.735 0 9.925 5.416 8.484 10.967l-9.217 35.516a8.764 8.764 0 0 1-8.484 6.563z" opacity="1" data-original="#494a47"></path><path fill="#333331" d="m383.486 404.266-9.217-35.516c-1.441-5.551 2.749-10.967 8.484-10.967h-23.309c-5.735 0-9.925 5.416-8.484 10.967l9.217 35.516a8.764 8.764 0 0 0 8.484 6.563h23.309a8.764 8.764 0 0 1-8.484-6.563z" opacity="1" data-original="#333331"></path><circle cx="118.235" cy="183.679" r="5.026" transform="rotate(-84.32 118.306 183.713)" fill="#000000" opacity="1" data-original="#000000"></circle><circle cx="206.095" cy="183.679" r="5.026" fill="#000000" opacity="1" data-original="#000000"></circle><path d="M136.169 153.775a35.393 35.393 0 0 0-36.642 0 5 5 0 1 0 5.177 8.556 25.384 25.384 0 0 1 26.289 0 4.998 4.998 0 0 0 6.866-1.689 5.001 5.001 0 0 0-1.69-6.867zM193.338 162.332a25.384 25.384 0 0 1 26.289 0 4.998 4.998 0 0 0 6.866-1.689 5 5 0 0 0-1.689-6.867 35.393 35.393 0 0 0-36.642 0 5 5 0 0 0 5.176 8.556zM182.176 242.317a5.001 5.001 0 0 0-6.866-1.689 25.394 25.394 0 0 1-26.289.001 5 5 0 1 0-5.178 8.554c5.526 3.345 11.862 5.112 18.321 5.112s12.794-1.768 18.321-5.111a5 5 0 0 0 1.691-6.867zM473.65 396.284c-1.153-6.588.566-14.174-1.535-20.428-6.154-40.484-41.195-71.606-83.371-71.606-46.501 0-84.332 37.831-84.332 84.332s37.831 84.332 84.332 84.332c43.903 0 80.06-33.727 83.965-76.63zm-64.825 9.545h-40.164a3.765 3.765 0 0 1-3.644-2.819l-9.217-35.516a3.739 3.739 0 0 1 .667-3.25 3.738 3.738 0 0 1 2.978-1.461h58.598c1.174 0 2.259.532 2.978 1.461s.961 2.113.667 3.25l-9.217 35.516a3.768 3.768 0 0 1-3.646 2.819zm-94.413-17.247c0-7.007.996-13.782 2.816-20.214h28.574c.074.547.178 1.094.319 1.638l7.706 29.693h-38.581a74.519 74.519 0 0 1-.834-11.117zm116.954-18.576c.141-.544.244-1.09.319-1.638h28.574a74.082 74.082 0 0 1 1.982 31.331H423.66zm-42.622-55.756c30.231 0 56.286 18.15 67.889 44.118h-27.536c-.059-.079-.106-.164-.166-.242a13.67 13.67 0 0 0-10.887-5.343h-58.598a13.673 13.673 0 0 0-10.888 5.343c-.06.078-.108.163-.166.242h-27.536c11.601-25.968 37.657-44.118 67.888-44.118zm-71.259 95.449h39.722a13.764 13.764 0 0 0 11.164 6.118v44.236c-24.383-6.962-43.678-26.075-50.886-50.354zm60.886 52.476v-46.346h20.745v46.346c-3.392.476-6.851.739-10.373.739s-6.98-.263-10.372-.739zm30.745-2.122v-44.236a13.761 13.761 0 0 0 11.163-6.118h39.722c-7.207 24.279-26.502 43.392-50.885 50.354z" fill="#000000" opacity="1" data-original="#000000"></path><path d="M388.744 268.056c-55.765 0-102.799 38.072-116.494 89.585a66.98 66.98 0 0 0-5.175-1.882c-7.378-7.132-21.901-13.388-43.326-18.67l-18.497-17.92v-11.442c38.258-16.173 65.071-53.19 65.071-96.171v-13.427h6.492c15.229 0 27.62-12.066 27.62-26.897 0-13.168-9.77-24.148-22.62-26.447v-29.636c.223-.162.442-.332.638-.531l30.611-31.121c7.482-7.606 10.267-18.023 7.45-27.865-3.097-10.817-12.089-18.994-24.056-21.873l-125.539-30.2a37.618 37.618 0 0 0-17.508 0l-125.538 30.2C15.906 36.638 6.913 44.815 3.817 55.633 1 65.474 3.785 75.891 11.267 83.497l29.175 29.662v32.074c-11.813 3.05-20.546 13.548-20.546 25.999 0 14.831 12.39 26.897 27.62 26.897h6.492v13.427c0 42.98 26.814 79.997 65.071 96.17v11.342l-18.535 17.957c-21.625 5.324-36.244 11.639-43.61 18.847-27.157 8.755-46.867 34.248-46.867 64.279v84.324a5 5 0 0 0 5 5h294.195a5 5 0 0 0 5-5v-21.198c20.516 16.171 46.391 25.832 74.481 25.832 66.458 0 120.526-54.068 120.526-120.527.001-66.458-54.067-120.526-120.525-120.526zM222.926 441.854l9.682 10.717-70.547 45.799-70.547-45.8 9.682-10.717a4.998 4.998 0 0 0 .761-5.59l-37.118-74.137c5.521-4.914 15.774-9.131 27.802-12.651a4.99 4.99 0 0 0 .999 1.414l35.555 34.511 28.185 93.054a5 5 0 0 0 4.739 3.551h.046a4.999 4.999 0 0 0 4.757-3.463l31-95.948 32.664-31.704c.41-.398.726-.869.975-1.37 12 3.511 22.218 7.714 27.721 12.608l-37.118 74.136a5.003 5.003 0 0 0 .762 5.59zm-99.481-113.092 23.117 31.423 9.21 12.519-10.997 13.884-40.471-39.282zm76.905.586h1.037l18.536 17.957-40.471 39.282-10.997-13.884zm-25.304 67.783a4.998 4.998 0 0 0 7.402.484l.164-.159-7.823 24.212h-24.161l-6.941-22.916a4.989 4.989 0 0 0 1.574.275 4.997 4.997 0 0 0 3.92-1.896l12.933-16.328zm-3.487 34.536-9.24 28.598-8.662-28.598zM59.008 144.335h-8.566v-28.223h6.805l3.526 2.837a131.876 131.876 0 0 0 14.262 9.988c-.352 8.547-7.395 15.398-16.027 15.398zm14.641-28.223h177.032c-20.555 14.351-45.251 22.174-70.405 22.174h-36.221c-25.155 0-49.851-7.823-70.406-22.174zm189.909 2.837 3.527-2.837h4.73v28.223h-6.479l-.01-.001c-8.629-.007-15.669-6.861-16.016-15.405a132.014 132.014 0 0 0 14.248-9.98zm30.877 52.282c0 9.317-7.904 16.897-17.62 16.897h-6.492v-33.794h6.492c9.715.001 17.62 7.581 17.62 16.897zm-17.642-65.119H47.537l-15.52-15.779h260.297zM13.431 58.384c2.091-7.307 8.365-12.877 16.781-14.902l125.538-30.2a27.55 27.55 0 0 1 12.832 0l125.538 30.2c8.416 2.024 14.689 7.596 16.781 14.902 1.839 6.426.029 13.022-4.965 18.102l-3.785 3.848H22.181l-3.784-3.848c-4.996-5.079-6.806-11.676-4.966-18.102zm40.576 129.745h-6.492c-9.716 0-17.62-7.58-17.62-16.897 0-9.316 7.904-16.896 17.62-16.896h6.492zm10.001 23.427v-57.702c10.085-1.967 18.087-9.775 20.374-19.743 18.42 9.241 38.903 14.175 59.673 14.175h36.221c20.78 0 41.271-4.938 59.698-14.188 2.286 9.962 10.271 17.778 20.35 19.751v57.706c0 52.307-44.033 94.86-98.157 94.86-54.126.001-98.159-42.553-98.159-94.859zm98.158 104.86c11.536 0 22.653-1.767 33.086-5.024v8.012l-33.138 45.045-27.294-37.101-5.74-7.802v-8.154a110.866 110.866 0 0 0 33.086 5.024zM20.067 420.151c0-24.092 14.893-44.751 35.948-53.311l35.47 70.845-11.324 12.533a4.998 4.998 0 0 0 .987 7.545l64.252 41.712H69.395v-27.289a5 5 0 1 0-10 0v27.289H20.067zm284.196 79.325h-39.327v-27.289a5 5 0 1 0-10 0v27.289h-76.215l64.252-41.712a5 5 0 0 0 .987-7.545l-11.324-12.533 35.509-70.921c.642.258 1.278.528 1.908.809a120.74 120.74 0 0 0-1.836 21.009c0 33.583 13.811 63.996 36.046 85.874zm84.481-.367c-60.945 0-110.527-49.582-110.527-110.527 0-60.944 49.582-110.526 110.527-110.526 60.944 0 110.526 49.582 110.526 110.526 0 60.945-49.582 110.527-110.526 110.527z" fill="#000000" opacity="1" data-original="#000000"></path></g></svg>