<svg width="97" height="80" viewBox="0 0 97 80" fill="none" xmlns="http://www.w3.org/2000/svg">
<path d="M60.4918 1.03565C47.9926 -0.581245 37.7483 5.57672 26.718 15.9432C17.7671 24.3488 3.23052 24.903 2.37206 38.3045C1.33046 54.6187 28.3663 55.9298 36.329 63.8155C57.4968 84.839 84.9027 82.0524 91.984 62.7529C98.2909 45.5748 88.0236 37.5744 84.4028 26.5199C79.1643 10.5841 73.6816 2.74046 60.4918 1.03565Z" fill="#DBEEFE"/>
<path d="M42.9601 49.4246L30.5906 64.9438C29.9273 65.7696 28.9649 66.299 27.9134 66.4164C26.8619 66.5339 25.8068 66.2298 24.9782 65.5707V65.5707C24.1531 64.906 23.6239 63.9414 23.5059 62.8873C23.388 61.8332 23.6909 60.7752 24.3487 59.944L36.7181 44.4287" fill="white"/>
<path d="M53.8684 55.6088C65.0849 55.6088 74.1777 46.4992 74.1777 35.2619C74.1777 24.0247 65.0849 14.915 53.8684 14.915C42.6519 14.915 33.5591 24.0247 33.5591 35.2619C33.5591 46.4992 42.6519 55.6088 53.8684 55.6088Z" fill="white"/>
<path d="M44.8026 53.1587L32.4369 68.674C31.7735 69.5009 30.8103 70.0311 29.7579 70.1486C28.7055 70.266 27.6495 69.9613 26.8207 69.3009V69.3009C25.9953 68.6363 25.4661 67.6713 25.3489 66.617C25.2316 65.5626 25.5358 64.5046 26.1949 63.6743L39.4191 47.0352" fill="white"/>
<path d="M35.9777 17.7857C32.9733 21.5419 31.3313 26.2091 31.3209 31.0226C31.3104 35.836 32.9321 40.5103 35.9203 44.2796C38.9085 48.0488 43.0859 50.6895 47.7681 51.769C52.4503 52.8485 57.3596 52.3027 61.6917 50.2212C66.0238 48.1396 69.5217 44.6456 71.6124 40.3118C73.7031 35.9779 74.2626 31.0612 73.1991 26.3671C72.1356 21.673 69.5123 17.48 65.759 14.475C62.0057 11.47 57.3449 9.83133 52.5403 9.82737C49.3586 9.81279 46.2151 10.5214 43.3463 11.8999C40.4774 13.2784 37.9581 15.2908 35.9777 17.7857V17.7857ZM52.5403 11.5628C56.9422 11.5702 61.2111 13.0747 64.6481 15.83C68.0851 18.5853 70.4865 22.428 71.4591 26.7291C72.4317 31.0301 71.9179 35.5345 70.0017 39.5048C68.0856 43.4751 64.8807 46.6759 60.9118 48.5833C56.9429 50.4906 52.4452 50.9913 48.1552 50.0036C43.8651 49.0158 40.037 46.598 37.2975 43.146C34.558 39.6941 33.0696 35.4126 33.0759 31.0026C33.0822 26.5925 34.5829 22.3153 37.3322 18.8713C39.1574 16.588 41.4721 14.7455 44.1047 13.4803C46.7374 12.2151 49.6205 11.5598 52.5403 11.5628V11.5628Z" fill="#B4DCF8"/>
<path d="M27.4581 67.0994C26.5839 67.0955 25.7285 66.8452 24.9897 66.3769C24.251 65.9086 23.6588 65.2414 23.281 64.4516C22.9031 63.6618 22.7549 62.7814 22.8533 61.9112C22.9517 61.0409 23.2927 60.216 23.8373 59.5309L36.203 44.0156L37.2331 44.8375L24.8636 60.3566C24.333 61.0515 24.0953 61.927 24.2014 62.7954C24.3076 63.6638 24.7492 64.456 25.4315 65.0021C26.1138 65.5481 26.9825 65.8046 27.8514 65.7165C28.7202 65.6284 29.52 65.2027 30.0793 64.5307L42.4449 49.0154L43.4751 49.8372L31.1056 65.364C30.7244 65.8429 30.2524 66.2414 29.7168 66.5366C29.1811 66.8319 28.5924 67.0179 27.9846 67.0841C27.8095 67.0987 27.6337 67.1038 27.4581 67.0994Z" fill="#B4DCF8"/>
<path d="M50.6689 30.1892L44.77 34.8867L45.7933 36.1764L51.6921 31.4789L50.6689 30.1892Z" fill="#78BCE4"/>
<path d="M45.7935 30.1887L44.7705 31.4785L50.6702 36.175L51.6932 34.8851L45.7935 30.1887Z" fill="#78BCE4"/>
<path d="M50.7399 45.4872C50.5344 45.4867 50.3342 45.4221 50.167 45.3023C49.9999 45.1825 49.8742 45.0134 49.8075 44.8187C49.7407 44.624 49.7362 44.4133 49.7946 44.2159C49.853 44.0185 49.9714 43.8442 50.1332 43.7174C51.6999 42.5272 53.6053 41.87 55.5712 41.8418C57.5371 41.8136 59.4605 42.4159 61.0605 43.5607C61.245 43.7222 61.3628 43.9468 61.3908 44.1906C61.4188 44.4345 61.355 44.68 61.2119 44.8793C61.0688 45.0785 60.8567 45.2172 60.6171 45.2681C60.3774 45.319 60.1274 45.2785 59.9159 45.1546C58.6912 44.2795 57.2232 43.8115 55.719 43.8168C54.1465 43.8074 52.6154 44.321 51.3656 45.2769C51.1874 45.4171 50.9664 45.4913 50.7399 45.4872V45.4872Z" fill="#78BCE4"/>
<path d="M65.3383 30.1912L59.4395 34.8887L60.4627 36.1784L66.3616 31.4808L65.3383 30.1912Z" fill="#78BCE4"/>
<path d="M60.4634 30.1867L59.4404 31.4766L65.3401 36.173L66.3631 34.8832L60.4634 30.1867Z" fill="#78BCE4"/>
<path d="M42.544 27.3918C42.3634 27.3912 42.1863 27.341 42.0321 27.2466C41.8779 27.1522 41.7525 27.0173 41.6695 26.8565C41.5865 26.6957 41.5491 26.5152 41.5614 26.3346C41.5736 26.154 41.635 25.9803 41.739 25.8322C41.9412 25.5455 42.1472 25.2665 42.3685 24.9913C45.1951 21.4341 49.3082 19.1375 53.8147 18.6001C53.9432 18.5843 54.0736 18.594 54.1983 18.6287C54.3231 18.6634 54.4399 18.7223 54.5419 18.8022C54.6439 18.882 54.7293 18.9812 54.793 19.0942C54.8568 19.2071 54.8977 19.3314 54.9135 19.4602C54.9293 19.5889 54.9196 19.7196 54.885 19.8446C54.8504 19.9696 54.7916 20.0865 54.7119 20.1887C54.6321 20.291 54.5331 20.3765 54.4204 20.4403C54.3077 20.5042 54.1836 20.5452 54.0551 20.5611C50.0645 21.0419 46.4237 23.0785 43.9214 26.2297C43.7268 26.4706 43.5398 26.719 43.3643 26.9713C43.2722 27.1031 43.1493 27.2103 43.0063 27.2836C42.8633 27.3569 42.7046 27.394 42.544 27.3918V27.3918Z" fill="white"/>
</svg>
