<svg xmlns="http://www.w3.org/2000/svg" version="1.1" xmlns:xlink="http://www.w3.org/1999/xlink" width="512" height="512" x="0" y="0" viewBox="0 0 512 512" style="enable-background:new 0 0 512 512" xml:space="preserve" class=""><g><g fill-rule="evenodd" clip-rule="evenodd"><path fill="#a9b0bb" d="M127.119 230.334H375.28l-31.776 256.922a9.958 9.958 0 0 1-9.924 8.772H168.82a9.959 9.959 0 0 1-9.924-8.772z" opacity="1" data-original="#a9b0bb"></path><path fill="#cad0d7" d="M116.979 213.839h268.439c2.754 0 5 2.246 5 5v25.978c0 2.754-2.246 5-5 5H116.979a5.01 5.01 0 0 1-5-5v-25.978a5.01 5.01 0 0 1 5-5z" opacity="1" data-original="#cad0d7"></path><path fill="#fdcd56" d="M468.122 53.476c-35.427 4.396-99.101 21.441-157.315 84.401l19.582 11.306c1.391.803 2.138 2.257 1.981 3.856s-1.174 2.879-2.695 3.396l-72.263 24.538c-1.13.384-2.252.273-3.286-.324a3.877 3.877 0 0 1-1.923-2.684l-14.88-74.85c-.313-1.575.287-3.096 1.593-4.031 1.306-.936 2.938-1.016 4.33-.213l20.194 11.659c20.778-27.265 78.339-80.119 204.709-63.007a2.986 2.986 0 0 1 2.601 2.975 2.985 2.985 0 0 1-2.628 2.978z" opacity="1" data-original="#fdcd56"></path><path fill="#a9b0bb" d="M24.218 179.977 179.841 24.354a4.805 4.805 0 0 1 2.727-1.399l42.255-6.926 14.793 14.793a5.01 5.01 0 0 1 0 7.071L37.757 239.751a5.01 5.01 0 0 1-7.071 0l-14.793-14.793 6.926-42.255a4.8 4.8 0 0 1 1.399-2.726z" opacity="1" data-original="#a9b0bb"></path><path fill="#cad0d7" d="m15.893 224.959 208.93-208.93 14.793 14.793a5.01 5.01 0 0 1 0 7.071L37.757 239.751a5.01 5.01 0 0 1-7.071 0z" opacity="1" data-original="#cad0d7"></path><path d="M433.98 53.175c-33.211 9.122-82.41 30.389-128.212 79.921a7.008 7.008 0 0 0 1.643 10.816l13.851 7.993-62.753 21.308-12.919-64.998 14.463 8.347a6.983 6.983 0 0 0 9.057-1.816c11.188-14.679 31.87-35.07 66.884-48.846 29.875-11.767 64.564-16.504 103.596-14.199a268.18 268.18 0 0 0-5.61 1.474zm65.459-7.085c-.292-.165-.79-.447-2.098-.697l.019-.071c-64.659-13.022-120.68-10.481-166.5 7.552-34.341 13.517-56.1 33.042-69.029 48.559L239.21 88.368a7.006 7.006 0 0 0-7.58.372 7.02 7.02 0 0 0-2.79 7.057l17.493 87.98a6.996 6.996 0 0 0 3.369 4.696 6.962 6.962 0 0 0 3.5.941 7.08 7.08 0 0 0 2.249-.372l84.941-28.845a7.013 7.013 0 0 0 4.719-5.942 7.005 7.005 0 0 0-3.472-6.747l-19.53-11.273c80.909-82.57 169.332-77.366 173.072-77.093.151.014.287.023.438.033a6.997 6.997 0 0 0 7.1-5.039 6.983 6.983 0 0 0-3.28-8.046zM34.328 233.361l-8.427-8.431L224.93 25.901l8.431 8.427zm150.113-203.63L29.731 184.445l-3.312 20.16L204.61 26.424zM69.859 114.117l5.199 5.199 44.254-44.254-5.203-5.199c-2.508-2.507-5.857-3.891-9.429-3.891-3.581 0-6.93 1.383-9.443 3.891L69.859 95.241c-2.508 2.512-3.891 5.862-3.891 9.438s1.383 6.926 3.891 9.438zM248.21 29.383l-18.33-18.33a7 7 0 0 0-6.079-1.962l-43.849 7.189a6.99 6.99 0 0 0-3.811 1.957L129.21 65.163l-5.199-5.199c-5.152-5.152-12.021-7.993-19.332-7.993-7.321 0-14.18 2.842-19.337 7.993L59.96 85.342c-5.147 5.157-7.989 12.021-7.989 19.337s2.842 14.18 7.989 19.337l5.199 5.199-46.921 46.921a6.986 6.986 0 0 0-1.957 3.82L9.092 223.8a7.016 7.016 0 0 0 1.957 6.079l18.33 18.33a6.997 6.997 0 0 0 4.95 2.047c1.792 0 3.58-.682 4.954-2.047L248.21 39.277a7.002 7.002 0 0 0 0-9.894zm-3.901 414.699V301.713a6.998 6.998 0 0 1 7.001-7.006 7.007 7.007 0 0 1 7.001 7.006v142.368a7.003 7.003 0 0 1-7.001 7.001 6.993 6.993 0 0 1-7.001-7zm47.473-17.479 5.119-108.084c.179-3.858 3.467-6.827 7.321-6.658 3.858.188 6.85 3.458 6.657 7.33l-5.119 108.07a6.998 6.998 0 0 1-6.991 6.667h-.329c-3.869-.188-6.852-3.467-6.658-7.325zm-94.93.659-5.124-108.07a7.005 7.005 0 0 1 6.662-7.33c3.882-.169 7.142 2.799 7.321 6.658l5.128 108.084a7.01 7.01 0 0 1-6.657 7.326h-.343a6.998 6.998 0 0 1-6.987-6.668zm186.679-184.477v-21.977H119.09v21.977zm-47.19 246.219 28.718-232.217H137.547l28.723 232.217zm54.19-282.192H112.089a6.997 6.997 0 0 0-7.001 7.001v35.973a6.997 6.997 0 0 0 7.001 7.001h11.362l29.688 240.074a6.995 6.995 0 0 0 6.949 6.14h182.44a6.985 6.985 0 0 0 6.939-6.14l29.692-240.074h11.372a7.006 7.006 0 0 0 7.001-7.001v-35.973a7.006 7.006 0 0 0-7.001-7.001z" fill="#000000" opacity="1" data-original="#000000"></path></g></g></svg>