<svg xmlns="http://www.w3.org/2000/svg" version="1.1" xmlns:xlink="http://www.w3.org/1999/xlink" width="512" height="512" x="0" y="0" viewBox="0 0 96 96" style="enable-background:new 0 0 512 512" xml:space="preserve" class=""><g><path fill="#555858" fill-rule="evenodd" d="M11.4 5h71.5c3.5 0 6.4 2.9 6.4 6.4v73.2c0 3.5-2.9 6.4-6.4 6.4H11.4C7.9 91 5 88.1 5 84.6V11.4C5 7.9 7.9 5 11.4 5z" clip-rule="evenodd" opacity="1" data-original="#555858"></path><path fill="#d0cdde" fill-rule="evenodd" d="M18 91V61.2c0-3.2 2.6-5.9 5.9-5.9h48.3c3.2 0 5.9 2.6 5.9 5.9V91z" clip-rule="evenodd" opacity="1" data-original="#d0cdde"></path><path fill="#d19264" fill-rule="evenodd" d="M85 82.9c1.1 0 2 .9 2 2s-.9 2-2 2-2-.9-2-2 .9-2 2-2zM11 82.9c1.1 0 2 .9 2 2s-.9 2-2 2-2-.9-2-2 .9-2 2-2z" clip-rule="evenodd" opacity="1" data-original="#d19264"></path><path fill="#57a897" fill-rule="evenodd" d="M70 5v30c0 2-1.7 3.7-3.7 3.7H29.7c-2 0-3.7-1.6-3.7-3.7V5z" clip-rule="evenodd" opacity="1" data-original="#57a897"></path><path fill="#d0cdde" fill-rule="evenodd" d="M57.1 11.3c1.8 0 3.3 1.5 3.3 3.3v14.5c0 1.8-1.5 3.3-3.3 3.3-1.8 0-3.3-1.5-3.3-3.3V14.5c0-1.8 1.5-3.2 3.3-3.2z" clip-rule="evenodd" opacity="1" data-original="#d0cdde"></path><path d="M84.6 92H11.4C7.3 92 4 88.7 4 84.6V11.4C4 7.3 7.3 4 11.4 4h73.2c4.1 0 7.4 3.3 7.4 7.4v73.2c0 4.1-3.3 7.4-7.4 7.4zM11.4 6C8.4 6 6 8.4 6 11.4v73.2c0 3 2.4 5.4 5.4 5.4h73.2c3 0 5.4-2.4 5.4-5.4V11.4c0-3-2.4-5.4-5.4-5.4z" fill="#000000" opacity="1" data-original="#000000"></path><path d="M65.9 39.6H30.2c-2.9 0-5.2-2.3-5.2-5.2V8c0-.6.4-1 1-1s1 .4 1 1v26.5c0 1.8 1.4 3.2 3.2 3.2h35.7c1.7 0 3.1-1.4 3.1-3.1V8c0-.6.4-1 1-1s1 .4 1 1v26.5c0 2.8-2.3 5.1-5.1 5.1z" fill="#000000" opacity="1" data-original="#000000"></path><path d="M57.1 33.4c-2.4 0-4.3-1.9-4.3-4.3V14.5c0-2.4 1.9-4.3 4.3-4.3s4.3 1.9 4.3 4.3V29c0 2.5-1.9 4.4-4.3 4.4zm0-21.1c-1.3 0-2.3 1-2.3 2.3v14.5c0 1.3 1 2.3 2.3 2.3s2.3-1 2.3-2.3V14.5c0-1.2-1-2.2-2.3-2.2zM79 91h-2V61.2c0-2.7-2.2-4.9-4.9-4.9H23.9c-2.7 0-4.9 2.2-4.9 4.9V91h-2V61.2c0-3.8 3.1-6.9 6.9-6.9h48.3c3.8 0 6.9 3.1 6.9 6.9V91zM85 87.8c-1.6 0-3-1.3-3-3 0-1.6 1.3-3 3-3s3 1.3 3 3c-.1 1.7-1.4 3-3 3zm0-3.9c-.5 0-1 .4-1 1 0 .5.4 1 1 1 .5 0 1-.4 1-1-.1-.6-.5-1-1-1zM11 87.8c-1.6 0-3-1.3-3-3 0-1.6 1.3-3 3-3s3 1.3 3 3-1.4 3-3 3zm0-3.9c-.5 0-1 .4-1 1 0 .5.4 1 1 1s1-.4 1-1-.5-1-1-1z" fill="#000000" opacity="1" data-original="#000000"></path><path d="M64.7 66.1H31.3c-.6 0-1-.4-1-1s.4-1 1-1h33.4c.6 0 1 .4 1 1s-.4 1-1 1zM64.7 74.2H31.3c-.6 0-1-.4-1-1s.4-1 1-1h33.4c.6 0 1 .4 1 1s-.4 1-1 1z" fill="#000000" opacity="1" data-original="#000000"></path></g></svg>