<svg xmlns="http://www.w3.org/2000/svg" version="1.1" xmlns:xlink="http://www.w3.org/1999/xlink" width="512" height="512" x="0" y="0" viewBox="0 0 512.014 512.014" style="enable-background:new 0 0 512 512" xml:space="preserve" class=""><g><path fill="#9e959e" d="M223.936 7.507C104.401 7.507 7.5 104.409 7.5 223.943s96.901 216.436 216.436 216.436l74.521-13.171c82.82-30.373 141.914-109.917 141.914-203.264 0-119.535-96.902-216.437-216.435-216.437z" opacity="1" data-original="#9e959e"></path><path fill="#887f88" d="M276.04 388.273c-119.533 0-216.435-96.902-216.435-216.436 0-46.46 14.688-89.464 39.605-124.726C43.751 86.302 7.5 150.869 7.5 223.943c0 119.534 96.902 216.435 216.435 216.435 73.074 0 137.64-36.251 176.83-91.71-35.26 24.918-78.264 39.605-124.725 39.605z" opacity="1" data-original="#887f88"></path><circle cx="223.935" cy="223.943" r="184.371" fill="#eceaec" opacity="1" data-original="#eceaec"></circle><circle cx="223.935" cy="223.943" r="160.323" fill="#ffffff" opacity="1" data-original="#ffffff"></circle><path fill="#ff7e92" d="m359.697 294.868-100.482 174.04c-9.135 15.822 2.284 35.599 20.553 35.599h200.964c18.269 0 29.688-19.777 20.553-35.599l-100.482-174.04c-9.135-15.821-31.971-15.821-41.106 0z" opacity="1" data-original="#ff7e92"></path><circle cx="223.935" cy="223.943" r="16.032" fill="#887f88" opacity="1" data-original="#887f88"></circle><path fill="#ff5f7a" d="M309.657 480.459c-5.682 0-10.77-2.938-13.611-7.858-2.841-4.921-2.841-10.796 0-15.717l97.545-168.952.257-.447c-10.815-7.634-26.833-5.293-34.151 7.383l-100.481 174.04c-9.136 15.821 2.284 35.599 20.553 35.599h200.963c13.958 0 23.88-11.545 23.731-24.048h-1.323z" opacity="1" data-original="#ff5f7a"></path><path d="M238.189 432.4c-4.713.317-9.509.479-14.254.479C108.728 432.878 15 339.15 15 223.943S108.728 15.007 223.936 15.007s208.936 93.728 208.936 208.936c0 18.961-2.539 37.751-7.546 55.849a7.501 7.501 0 0 0 14.458 4c5.367-19.4 8.089-39.536 8.089-59.849 0-59.815-23.293-116.051-65.589-158.346C339.986 23.301 283.751.007 223.936.007S107.885 23.301 65.589 65.597C23.293 107.892 0 164.127 0 223.943s23.293 116.051 65.589 158.346c42.295 42.296 98.531 65.589 158.346 65.589 5.08 0 10.215-.172 15.263-.513a7.5 7.5 0 0 0 6.979-7.987 7.489 7.489 0 0 0-7.988-6.978z" fill="#000000" opacity="1" data-original="#000000"></path><path d="M404.398 262.625a7.497 7.497 0 0 0 8.657-6.128 193.722 193.722 0 0 0 2.752-32.554c0-105.798-86.073-191.871-191.871-191.871S32.064 118.145 32.064 223.943s86.073 191.871 191.871 191.871a193.47 193.47 0 0 0 35.742-3.325 7.5 7.5 0 1 0-2.778-14.74 178.415 178.415 0 0 1-32.964 3.065c-97.527 0-176.871-79.344-176.871-176.871S126.409 47.072 223.936 47.072s176.871 79.344 176.871 176.871c0 10.077-.854 20.179-2.537 30.026a7.497 7.497 0 0 0 6.128 8.656z" fill="#000000" opacity="1" data-original="#000000"></path><path d="m507.78 465.158-100.482-174.04c-5.646-9.778-15.757-15.616-27.048-15.616s-21.403 5.838-27.048 15.616L252.72 465.158c-5.646 9.778-5.646 21.454 0 31.232 5.646 9.779 15.757 15.617 27.048 15.617h200.964c11.292 0 21.403-5.838 27.048-15.617 5.646-9.778 5.646-21.454 0-31.232zm-12.99 23.733c-2.934 5.082-8.189 8.116-14.058 8.116H279.768c-5.869 0-11.124-3.034-14.058-8.116-2.934-5.083-2.934-11.151 0-16.233l100.482-174.04c2.934-5.082 8.189-8.116 14.058-8.116s11.124 3.034 14.058 8.116l100.482 174.04c2.934 5.082 2.934 11.15 0 16.233z" fill="#000000" opacity="1" data-original="#000000"></path><path d="M380.05 329.793a7.5 7.5 0 0 0-7.5 7.5v96.194a7.5 7.5 0 0 0 15 0v-96.194a7.5 7.5 0 0 0-7.5-7.5zM246.235 231.443h130.007a7.5 7.5 0 0 0 0-15H246.235c-3.139-9.308-11.946-16.032-22.3-16.032-3.757 0-7.309.89-10.463 2.463l-88.444-88.444a7.5 7.5 0 0 0-10.606 0 7.5 7.5 0 0 0 0 10.606l88.444 88.444a23.379 23.379 0 0 0-2.463 10.463c0 12.976 10.557 23.532 23.532 23.532 10.354 0 19.161-6.724 22.3-16.032zm-22.299 1.032c-4.705 0-8.532-3.828-8.532-8.532s3.828-8.532 8.532-8.532 8.532 3.828 8.532 8.532-3.828 8.532-8.532 8.532zM95.161 223.943a7.5 7.5 0 0 0-7.5-7.5H71.629a7.5 7.5 0 0 0 0 15h16.032a7.5 7.5 0 0 0 7.5-7.5zM231.436 87.668V71.636a7.5 7.5 0 0 0-15 0v16.032a7.5 7.5 0 0 0 15 0zM216.436 360.217v16.032a7.5 7.5 0 0 0 15 0v-16.032a7.5 7.5 0 0 0-15 0zM145.295 345.152l-4.008 6.942a7.5 7.5 0 0 0 12.99 7.5l4.008-6.942a7.5 7.5 0 0 0-2.745-10.245 7.498 7.498 0 0 0-10.245 2.745zM296.074 106.485a7.497 7.497 0 0 0 6.502-3.751l4.008-6.942a7.5 7.5 0 0 0-12.99-7.5l-4.008 6.942a7.5 7.5 0 0 0 6.488 11.251zM102.727 145.303l-6.942-4.008a7.5 7.5 0 0 0-7.5 12.99l6.942 4.008a7.497 7.497 0 0 0 10.245-2.745 7.5 7.5 0 0 0-2.745-10.245zM151.797 106.485a7.5 7.5 0 0 0 6.488-11.251l-4.008-6.942a7.5 7.5 0 0 0-12.99 7.5l4.008 6.942a7.499 7.499 0 0 0 6.502 3.751zM348.901 159.299a7.465 7.465 0 0 0 3.743-1.006l6.942-4.008a7.5 7.5 0 0 0-7.5-12.99l-6.942 4.008a7.5 7.5 0 0 0 3.757 13.996zM92.041 307.598a7.465 7.465 0 0 0 3.743-1.006l6.942-4.008a7.5 7.5 0 0 0-7.5-12.99l-6.942 4.008a7.5 7.5 0 0 0 3.757 13.996z" fill="#000000" opacity="1" data-original="#000000"></path><circle cx="380.05" cy="465.547" r="7.5" fill="#000000" opacity="1" data-original="#000000"></circle></g></svg>