<svg xmlns="http://www.w3.org/2000/svg" version="1.1" xmlns:xlink="http://www.w3.org/1999/xlink" width="512" height="512" x="0" y="0" viewBox="0 0 512 512" style="enable-background:new 0 0 512 512" xml:space="preserve" class=""><g><g fill-rule="evenodd" clip-rule="evenodd"><path fill="#fdcd56" d="M470.448 118.943c14.112 0 25.552 11.44 25.552 25.552s-11.44 25.552-25.552 25.552-25.552-11.44-25.552-25.552c.001-14.112 11.441-25.552 25.552-25.552zm-428.896 0C27.44 118.943 16 130.383 16 144.495s11.44 25.552 25.552 25.552 25.552-11.44 25.552-25.552c-.001-14.112-11.441-25.552-25.552-25.552zm0 377.057C27.44 496 16 484.56 16 470.448s11.44-25.552 25.552-25.552 25.552 11.44 25.552 25.552S55.663 496 41.552 496zm428.896 0C484.56 496 496 484.56 496 470.448s-11.44-25.552-25.552-25.552-25.552 11.44-25.552 25.552C444.897 484.56 456.337 496 470.448 496z" opacity="1" data-original="#fdcd56"></path><ellipse cx="256" cy="307.472" fill="#66d4f1" rx="77.158" ry="26.791" opacity="1" data-original="#66d4f1"></ellipse><path fill="#f76c82" d="M253.558 297.793c-42.332-74.887-134.69-184.179-64.937-253.932 37.147-37.147 97.932-37.147 135.079 0 70.388 70.388-26.645 186.843-64.928 253.942a2.932 2.932 0 0 1-2.61 1.513 2.933 2.933 0 0 1-2.604-1.523z" opacity="1" data-original="#f76c82"></path><circle cx="256.001" cy="105.638" r="33.081" fill="#f4f6f8" opacity="1" data-original="#f4f6f8"></circle><path d="M229.935 105.638c0-14.378 11.715-26.079 26.065-26.079 14.397 0 26.112 11.701 26.112 26.079 0 14.383-11.715 26.084-26.112 26.084-14.35 0-26.065-11.701-26.065-26.084zm66.15 0c0-22.099-17.973-40.081-40.085-40.081-22.066 0-40.085 17.982-40.085 40.081s18.02 40.081 40.085 40.081c22.113 0 40.085-17.982 40.085-40.081zM193.567 48.813c-23.665 23.713-29.123 54.713-16.561 94.774 11.433 36.354 35.851 75.136 57.399 109.35 7.81 12.355 15.244 24.188 21.783 35.395 5.74-9.664 12.468-20.17 19.431-31.108 21.689-34.016 46.249-72.567 58.528-110.22 13.644-42.061 8.657-74.176-15.385-98.19-16.655-16.646-38.862-25.811-62.574-25.811-23.712-.001-45.966 9.164-62.621 25.81zm56.458 257.016a6.987 6.987 0 0 0 6.163 3.641 6.97 6.97 0 0 0 6.116-3.641c6.587-11.997 15.573-26.126 25.124-41.078 22.113-34.722 47.237-74.068 60.034-113.419 7.151-22.052 9.598-41.375 7.434-59.079-2.447-20.452-11.292-38.396-26.206-53.344-19.29-19.285-45.073-29.908-72.502-29.908-27.476 0-53.212 10.624-72.502 29.909-61.774 61.765-5.928 150.329 38.909 221.495 10.163 16.198 19.855 31.502 27.43 45.424zm166.834-84.306 3.34-20.73-113.01 79.305c21.172 6.055 32.981 15.7 32.981 27.373 0 12.576-13.597 21.751-33.028 27.34l113.057 79.338-3.34-20.729c-.612-3.82 1.976-7.41 5.787-8.017 3.811-.621 7.434 1.976 8.045 5.796l5.975 37.093c.612 3.815-1.976 7.41-5.787 8.017l-37.121 5.97c-.376.061-.753.09-1.129.09-3.34 0-6.352-2.447-6.869-5.891-.612-3.815 1.976-7.41 5.787-8.026l20.043-3.223-123.079-86.39c-10.304 1.609-21.407 2.423-32.51 2.423-11.056 0-22.16-.814-32.511-2.423l-123.079 86.39 20.09 3.223c3.811.616 6.399 4.211 5.787 8.026-.517 3.444-3.529 5.891-6.869 5.891a6.93 6.93 0 0 1-1.129-.09l-37.121-5.97a6.937 6.937 0 0 1-4.564-2.809c-1.082-1.501-1.506-3.378-1.223-5.208l5.975-37.093a6.975 6.975 0 0 1 7.998-5.796 6.985 6.985 0 0 1 5.834 8.017l-3.34 20.729 113.01-79.338c-19.384-5.58-32.981-14.764-32.981-27.34 0-11.672 11.809-21.317 32.981-27.373l-113.01-79.305 3.34 20.73a6.995 6.995 0 0 1-5.834 8.022 6.978 6.978 0 0 1-7.998-5.796l-5.975-37.093c-.282-1.835.141-3.707 1.223-5.213s2.729-2.517 4.564-2.809l37.121-5.966c3.811-.612 7.387 1.985 7.998 5.801.612 3.816-1.976 7.406-5.787 8.022l-20.09 3.228 125.384 88.009c.047 0 .047.005.047.009a7.018 7.018 0 0 1 2.87 4.531c.658 3.811-1.929 7.434-5.74 8.087-25.595 4.404-37.121 12.665-37.121 17.116 0 6.719 24.795 19.789 70.149 19.789 45.402 0 70.196-13.07 70.196-19.789 0-4.451-11.527-12.712-37.168-17.116-3.811-.654-6.351-4.277-5.693-8.087.329-1.793 1.271-3.298 2.635-4.333 0-.009 0-.028.047-.037a.81.81 0 0 1 .235-.174l125.337-88.004-20.043-3.228c-3.811-.616-6.399-4.206-5.787-8.022.611-3.816 4.187-6.413 7.998-5.801l37.121 5.966c3.811.612 6.399 4.202 5.787 8.022l-5.975 37.093c-.612 3.815-4.234 6.413-8.045 5.796-3.81-.613-6.398-4.207-5.786-8.023zm53.588 267.475c-10.21 0-18.537-8.318-18.537-18.547 0-10.233 8.328-18.551 18.537-18.551 10.257 0 18.584 8.318 18.584 18.551 0 10.229-8.328 18.547-18.584 18.547zm0-51.099c-17.926 0-32.511 14.599-32.511 32.553 0 17.949 14.585 32.548 32.511 32.548 17.973 0 32.558-14.599 32.558-32.548-.001-17.954-14.586-32.553-32.558-32.553zM41.553 488.998c-10.21 0-18.537-8.318-18.537-18.547 0-10.233 8.328-18.551 18.537-18.551 10.257 0 18.584 8.318 18.584 18.551.001 10.229-8.327 18.547-18.584 18.547zm0-51.099c-17.926 0-32.558 14.599-32.558 32.553C8.995 488.401 23.627 503 41.553 503c17.972 0 32.558-14.599 32.558-32.548 0-17.954-14.585-32.553-32.558-32.553zm0-274.852c-10.21 0-18.537-8.323-18.537-18.551s8.328-18.551 18.537-18.551c10.257 0 18.584 8.323 18.584 18.551.001 10.228-8.327 18.551-18.584 18.551zm0-51.105c-17.926 0-32.558 14.604-32.558 32.553s14.632 32.548 32.558 32.548c17.972 0 32.558-14.599 32.558-32.548 0-17.948-14.585-32.553-32.558-32.553zm428.894 14.002c10.257 0 18.584 8.323 18.584 18.551 0 10.229-8.328 18.551-18.584 18.551-10.21 0-18.537-8.323-18.537-18.551-.001-10.228 8.327-18.551 18.537-18.551zm0 51.104c17.973 0 32.558-14.604 32.558-32.553s-14.585-32.553-32.558-32.553c-17.926 0-32.511 14.604-32.511 32.553s14.585 32.553 32.511 32.553z" fill="#000000" opacity="1" data-original="#000000" class=""></path></g></g></svg>