<svg xmlns="http://www.w3.org/2000/svg" version="1.1" xmlns:xlink="http://www.w3.org/1999/xlink" width="512" height="512" x="0" y="0" viewBox="0 0 64 64" style="enable-background:new 0 0 512 512" xml:space="preserve" class=""><g><path fill="#37474f" d="M44 19H20L9.338 58.74a1 1 0 0 0 .966 1.26h43.392a1 1 0 0 0 .966-1.26L44 19z" opacity="1" data-original="#37474f"></path><path fill="#455a64" d="M38 19H26L15 60h34z" opacity="1" data-original="#455a64"></path><path fill="#e53935" d="M47 19c0 8.84-9.688 20.91-13.492 25.308-.796.92-2.22.92-3.016 0C26.688 39.91 17 27.84 17 19c0-8.28 6.72-15 15-15s15 6.72 15 15z" opacity="1" data-original="#e53935"></path><circle cx="32" cy="19" r="6" fill="#eceff1" opacity="1" data-original="#eceff1"></circle><g fill="#05112d"><path d="M54.062 53.607a.75.75 0 1 0-1.45.389l1.326 4.94a.242.242 0 0 1-.043.216.244.244 0 0 1-.199.098h-4.12l-6.978-25.995c1.1-1.81 2.115-3.69 2.953-5.576l5.477 20.415a.75.75 0 0 0 1.45-.389l-5.999-22.357c.78-2.189 1.271-4.344 1.271-6.348 0-3.818-1.386-7.502-3.9-10.373a.75.75 0 0 0-1.13.989A14.234 14.234 0 0 1 46.25 19c0 8.75-10.188 21.208-13.31 24.818-.472.547-1.408.547-1.88 0C27.936 40.208 17.75 27.75 17.75 19c0-7.857 6.392-14.25 14.25-14.25 2.914 0 5.717.875 8.104 2.53a.75.75 0 0 0 .855-1.232A15.652 15.652 0 0 0 32 3.25c-8.684 0-15.75 7.065-15.75 15.75 0 2.004.492 4.159 1.272 6.348L8.613 58.546c-.142.53-.032 1.083.302 1.518s.84.686 1.389.686h43.392c.549 0 1.055-.25 1.389-.686s.444-.989.302-1.518l-1.325-4.939zm-43.957 5.545a.243.243 0 0 1-.043-.217l8.387-31.256c.838 1.886 1.853 3.767 2.953 5.576L14.424 59.25h-4.12a.244.244 0 0 1-.199-.098zm22.645.098V52a.75.75 0 0 0-1.5 0v7.25H15.977l6.514-24.265c2.674 4.11 5.597 7.69 7.434 9.814a2.744 2.744 0 0 0 4.15 0c1.837-2.124 4.76-5.703 7.433-9.814l6.514 24.265H32.75z" fill="#05112d" opacity="1" data-original="#05112d"></path><path d="M52.282 49.872a.75.75 0 0 0-.53.918l.224.833a.75.75 0 0 0 1.449-.389l-.224-.833a.748.748 0 0 0-.919-.53zM25.25 19c0 3.722 3.028 6.75 6.75 6.75s6.75-3.028 6.75-6.75-3.028-6.75-6.75-6.75-6.75 3.028-6.75 6.75zm12 0c0 2.895-2.356 5.25-5.25 5.25s-5.25-2.355-5.25-5.25 2.356-5.25 5.25-5.25 5.25 2.355 5.25 5.25zM57.152 7.297a.75.75 0 1 0-1.358.637c1.63 3.478 2.456 7.201 2.456 11.066s-.826 7.588-2.455 11.066a.75.75 0 1 0 1.357.637C58.876 27.024 59.75 23.087 59.75 19s-.874-8.024-2.598-11.703zM50.722 28.519a.752.752 0 0 0 .998-.361c1.347-2.877 2.03-5.959 2.03-9.158s-.684-6.28-2.03-9.158a.75.75 0 0 0-1.36.636c1.254 2.677 1.89 5.544 1.89 8.522s-.636 5.845-1.89 8.522a.75.75 0 0 0 .362.997zM7.845 6.936a.749.749 0 0 0-.997.36C5.124 10.977 4.25 14.914 4.25 19s.874 8.024 2.598 11.703a.75.75 0 1 0 1.357-.637A25.9 25.9 0 0 1 5.75 19 25.9 25.9 0 0 1 8.205 7.933a.75.75 0 0 0-.36-.997zM12.96 28.59a.75.75 0 0 0 .679-1.068C12.387 24.845 11.75 21.978 11.75 19s.636-5.845 1.89-8.522a.75.75 0 0 0-1.36-.636c-1.346 2.877-2.03 5.959-2.03 9.158s.684 6.28 2.03 9.158a.751.751 0 0 0 .681.432z" fill="#05112d" opacity="1" data-original="#05112d"></path></g></g></svg>